<mxfile host="app.diagrams.net" agent="Mozilla/5.0 (Windows NT 10.0; Win64; x64) AppleWebKit/537.36 (KHTML, like Gecko) Chrome/131.0.0.0 Safari/537.36 Edg/131.0.0.0" version="24.9.3">
  <diagram name="Страница — 1" id="e_Q7dSje0Ds5MWDtg1Tx">
    <mxGraphModel dx="1612" dy="735" grid="1" gridSize="10" guides="1" tooltips="1" connect="1" arrows="1" fold="1" page="1" pageScale="1" pageWidth="827" pageHeight="1169" background="none" math="0" shadow="0">
      <root>
        <mxCell id="0" />
        <mxCell id="1" parent="0" />
        <mxCell id="rB9vsVfAewknWLXbqwtC-3" value="Создать обращение" style="ellipse;whiteSpace=wrap;html=1;fillColor=#ffe6cc;strokeColor=#d79b00;" parent="1" vertex="1">
          <mxGeometry x="70" y="460" width="140" height="70" as="geometry" />
        </mxCell>
        <mxCell id="rB9vsVfAewknWLXbqwtC-4" value="Гражданин&lt;div&gt;&lt;br&gt;&lt;/div&gt;" style="shape=umlActor;verticalLabelPosition=bottom;verticalAlign=top;html=1;fillColor=#d5e8d4;strokeColor=#82b366;" parent="1" vertex="1">
          <mxGeometry x="102.5" y="230" width="75" height="110" as="geometry" />
        </mxCell>
        <mxCell id="rB9vsVfAewknWLXbqwtC-6" value="&lt;div&gt;Сотрудник ЖКХ&lt;/div&gt;&lt;div&gt;&lt;br&gt;&lt;/div&gt;" style="shape=umlActor;verticalLabelPosition=bottom;verticalAlign=top;html=1;fillColor=#d5e8d4;strokeColor=#82b366;" parent="1" vertex="1">
          <mxGeometry x="370" y="220" width="75" height="110" as="geometry" />
        </mxCell>
        <mxCell id="rB9vsVfAewknWLXbqwtC-7" value="&lt;div&gt;Системный администратор&lt;/div&gt;&lt;div&gt;&lt;br&gt;&lt;/div&gt;" style="shape=umlActor;verticalLabelPosition=bottom;verticalAlign=top;html=1;fillColor=#d5e8d4;strokeColor=#82b366;" parent="1" vertex="1">
          <mxGeometry x="690" y="60" width="75" height="110" as="geometry" />
        </mxCell>
        <mxCell id="rB9vsVfAewknWLXbqwtC-8" value="" style="endArrow=none;html=1;edgeStyle=orthogonalEdgeStyle;rounded=0;entryX=0.506;entryY=-0.04;entryDx=0;entryDy=0;entryPerimeter=0;" parent="1" source="rB9vsVfAewknWLXbqwtC-4" target="rB9vsVfAewknWLXbqwtC-3" edge="1">
          <mxGeometry relative="1" as="geometry">
            <mxPoint x="57.215714285714256" y="120" as="sourcePoint" />
            <mxPoint x="57" y="180" as="targetPoint" />
            <Array as="points" />
          </mxGeometry>
        </mxCell>
        <mxCell id="rB9vsVfAewknWLXbqwtC-11" value="Просмотреть статус обращения" style="ellipse;whiteSpace=wrap;html=1;fillColor=#ffe6cc;strokeColor=#d79b00;" parent="1" vertex="1">
          <mxGeometry x="70" y="610" width="140" height="70" as="geometry" />
        </mxCell>
        <mxCell id="rB9vsVfAewknWLXbqwtC-12" value="Обработать обращение" style="ellipse;whiteSpace=wrap;html=1;fillColor=#ffe6cc;strokeColor=#d79b00;" parent="1" vertex="1">
          <mxGeometry x="337.5" y="470" width="140" height="70" as="geometry" />
        </mxCell>
        <mxCell id="rB9vsVfAewknWLXbqwtC-13" value="Назначить ответственное лицо" style="ellipse;whiteSpace=wrap;html=1;fillColor=#ffe6cc;strokeColor=#d79b00;" parent="1" vertex="1">
          <mxGeometry x="210" y="550" width="140" height="70" as="geometry" />
        </mxCell>
        <mxCell id="rB9vsVfAewknWLXbqwtC-16" value="Подключение и удаление пользователей" style="ellipse;whiteSpace=wrap;html=1;fillColor=#ffe6cc;strokeColor=#d79b00;" parent="1" vertex="1">
          <mxGeometry x="490" y="20" width="140" height="70" as="geometry" />
        </mxCell>
        <mxCell id="rB9vsVfAewknWLXbqwtC-18" value="" style="html=1;verticalAlign=bottom;labelBackgroundColor=none;endArrow=open;endFill=0;dashed=1;rounded=0;entryX=0.5;entryY=1;entryDx=0;entryDy=0;exitX=0.5;exitY=0;exitDx=0;exitDy=0;" parent="1" source="rB9vsVfAewknWLXbqwtC-11" target="rB9vsVfAewknWLXbqwtC-3" edge="1">
          <mxGeometry width="160" relative="1" as="geometry">
            <mxPoint x="-30" y="270" as="sourcePoint" />
            <mxPoint x="30" y="270" as="targetPoint" />
            <mxPoint as="offset" />
          </mxGeometry>
        </mxCell>
        <mxCell id="rB9vsVfAewknWLXbqwtC-31" value="" style="endArrow=none;html=1;edgeStyle=orthogonalEdgeStyle;rounded=0;entryX=0.535;entryY=0.027;entryDx=0;entryDy=0;entryPerimeter=0;" parent="1" source="rB9vsVfAewknWLXbqwtC-6" target="rB9vsVfAewknWLXbqwtC-12" edge="1">
          <mxGeometry relative="1" as="geometry">
            <mxPoint x="518.1399999999999" y="370" as="sourcePoint" />
            <mxPoint x="511.84999999999997" y="518.25" as="targetPoint" />
            <Array as="points">
              <mxPoint x="408" y="444" />
              <mxPoint x="412" y="444" />
              <mxPoint x="412" y="450" />
              <mxPoint x="412" y="450" />
            </Array>
          </mxGeometry>
        </mxCell>
        <mxCell id="y7GTG4EJ7htwyHdlm22E-1" value="Пользователь&lt;div&gt;&lt;br&gt;&lt;/div&gt;" style="shape=umlActor;verticalLabelPosition=bottom;verticalAlign=top;html=1;fillColor=#d5e8d4;strokeColor=#82b366;" parent="1" vertex="1">
          <mxGeometry x="320" y="40" width="56" height="90" as="geometry" />
        </mxCell>
        <mxCell id="y7GTG4EJ7htwyHdlm22E-2" value="" style="endArrow=none;html=1;edgeStyle=orthogonalEdgeStyle;rounded=0;entryX=0.572;entryY=0.029;entryDx=0;entryDy=0;entryPerimeter=0;" parent="1" source="y7GTG4EJ7htwyHdlm22E-1" target="rB9vsVfAewknWLXbqwtC-4" edge="1">
          <mxGeometry relative="1" as="geometry">
            <mxPoint x="267.26" y="130" as="sourcePoint" />
            <mxPoint x="268.26" y="247" as="targetPoint" />
            <Array as="points" />
          </mxGeometry>
        </mxCell>
        <mxCell id="y7GTG4EJ7htwyHdlm22E-6" value="" style="endArrow=none;html=1;edgeStyle=orthogonalEdgeStyle;rounded=0;exitX=0.538;exitY=0.497;exitDx=0;exitDy=0;exitPerimeter=0;entryX=0.515;entryY=-0.018;entryDx=0;entryDy=0;entryPerimeter=0;" parent="1" target="rB9vsVfAewknWLXbqwtC-6" edge="1">
          <mxGeometry relative="1" as="geometry">
            <mxPoint x="370.03800000000007" y="77.36999999999996" as="sourcePoint" />
            <mxPoint x="427.41769230769233" y="212.64" as="targetPoint" />
            <Array as="points">
              <mxPoint x="409" y="77" />
            </Array>
          </mxGeometry>
        </mxCell>
        <mxCell id="y7GTG4EJ7htwyHdlm22E-8" value="Закрыть обращение" style="ellipse;whiteSpace=wrap;html=1;fillColor=#ffe6cc;strokeColor=#d79b00;" parent="1" vertex="1">
          <mxGeometry x="278" y="630" width="140" height="70" as="geometry" />
        </mxCell>
        <mxCell id="y7GTG4EJ7htwyHdlm22E-10" value="" style="html=1;verticalAlign=bottom;labelBackgroundColor=none;endArrow=open;endFill=0;dashed=1;rounded=0;entryX=0.006;entryY=0.602;entryDx=0;entryDy=0;entryPerimeter=0;" parent="1" source="rB9vsVfAewknWLXbqwtC-13" target="rB9vsVfAewknWLXbqwtC-12" edge="1">
          <mxGeometry width="160" relative="1" as="geometry">
            <mxPoint x="414" y="560" as="sourcePoint" />
            <mxPoint x="442" y="482" as="targetPoint" />
            <mxPoint as="offset" />
          </mxGeometry>
        </mxCell>
        <mxCell id="y7GTG4EJ7htwyHdlm22E-11" value="" style="html=1;verticalAlign=bottom;labelBackgroundColor=none;endArrow=open;endFill=0;dashed=1;rounded=0;exitX=0.679;exitY=0;exitDx=0;exitDy=0;exitPerimeter=0;entryX=0.464;entryY=1;entryDx=0;entryDy=0;entryPerimeter=0;" parent="1" source="y7GTG4EJ7htwyHdlm22E-8" target="rB9vsVfAewknWLXbqwtC-12" edge="1">
          <mxGeometry width="160" relative="1" as="geometry">
            <mxPoint x="610.5" y="553" as="sourcePoint" />
            <mxPoint x="657.5" y="530" as="targetPoint" />
            <mxPoint as="offset" />
          </mxGeometry>
        </mxCell>
        <mxCell id="y7GTG4EJ7htwyHdlm22E-14" value="" style="endArrow=none;html=1;edgeStyle=orthogonalEdgeStyle;rounded=0;entryX=1;entryY=0.429;entryDx=0;entryDy=0;entryPerimeter=0;" parent="1" source="rB9vsVfAewknWLXbqwtC-7" target="rB9vsVfAewknWLXbqwtC-16" edge="1">
          <mxGeometry relative="1" as="geometry">
            <mxPoint x="730" y="50" as="sourcePoint" />
            <mxPoint x="640" y="50" as="targetPoint" />
            <Array as="points">
              <mxPoint x="660" y="115" />
              <mxPoint x="660" y="50" />
            </Array>
          </mxGeometry>
        </mxCell>
        <mxCell id="y7GTG4EJ7htwyHdlm22E-17" value="Контроль защиты&lt;div&gt;&lt;br&gt;&lt;/div&gt;" style="ellipse;whiteSpace=wrap;html=1;fillColor=#ffe6cc;strokeColor=#d79b00;" parent="1" vertex="1">
          <mxGeometry x="480" y="100" width="140" height="70" as="geometry" />
        </mxCell>
        <mxCell id="y7GTG4EJ7htwyHdlm22E-18" value="" style="endArrow=none;html=1;edgeStyle=orthogonalEdgeStyle;rounded=0;entryX=1.017;entryY=0.571;entryDx=0;entryDy=0;entryPerimeter=0;" parent="1" source="rB9vsVfAewknWLXbqwtC-7" target="y7GTG4EJ7htwyHdlm22E-17" edge="1">
          <mxGeometry relative="1" as="geometry">
            <mxPoint x="680" y="170" as="sourcePoint" />
            <mxPoint x="650" y="150" as="targetPoint" />
            <Array as="points" />
          </mxGeometry>
        </mxCell>
        <mxCell id="y7GTG4EJ7htwyHdlm22E-19" value="Оказание помощи пользователям" style="ellipse;whiteSpace=wrap;html=1;fillColor=#ffe6cc;strokeColor=#d79b00;" parent="1" vertex="1">
          <mxGeometry x="490" y="210" width="140" height="70" as="geometry" />
        </mxCell>
        <mxCell id="y7GTG4EJ7htwyHdlm22E-20" value="" style="endArrow=none;html=1;edgeStyle=orthogonalEdgeStyle;rounded=0;entryX=0.994;entryY=0.442;entryDx=0;entryDy=0;entryPerimeter=0;" parent="1" source="rB9vsVfAewknWLXbqwtC-7" target="y7GTG4EJ7htwyHdlm22E-19" edge="1">
          <mxGeometry relative="1" as="geometry">
            <mxPoint x="738" y="220" as="sourcePoint" />
            <mxPoint x="680" y="255" as="targetPoint" />
            <Array as="points">
              <mxPoint x="660" y="115" />
              <mxPoint x="660" y="241" />
            </Array>
          </mxGeometry>
        </mxCell>
        <mxCell id="y7GTG4EJ7htwyHdlm22E-21" value="Мониторинг системы" style="ellipse;whiteSpace=wrap;html=1;fillColor=#ffe6cc;strokeColor=#d79b00;" parent="1" vertex="1">
          <mxGeometry x="490" y="300" width="140" height="70" as="geometry" />
        </mxCell>
        <mxCell id="y7GTG4EJ7htwyHdlm22E-22" value="" style="endArrow=none;html=1;edgeStyle=orthogonalEdgeStyle;rounded=0;entryX=1.004;entryY=0.434;entryDx=0;entryDy=0;entryPerimeter=0;" parent="1" source="rB9vsVfAewknWLXbqwtC-7" target="y7GTG4EJ7htwyHdlm22E-21" edge="1">
          <mxGeometry relative="1" as="geometry">
            <mxPoint x="660" y="250" as="sourcePoint" />
            <mxPoint x="640" y="330" as="targetPoint" />
            <Array as="points">
              <mxPoint x="660" y="115" />
              <mxPoint x="660" y="330" />
              <mxPoint x="640" y="330" />
            </Array>
          </mxGeometry>
        </mxCell>
        <mxCell id="y7GTG4EJ7htwyHdlm22E-23" value="Устранение неполадок в системе&lt;div&gt;&lt;br&gt;&lt;/div&gt;" style="ellipse;whiteSpace=wrap;html=1;fillColor=#ffe6cc;strokeColor=#d79b00;" parent="1" vertex="1">
          <mxGeometry x="490" y="400" width="140" height="70" as="geometry" />
        </mxCell>
        <mxCell id="y7GTG4EJ7htwyHdlm22E-26" value="" style="endArrow=none;html=1;edgeStyle=orthogonalEdgeStyle;rounded=0;entryX=0.993;entryY=0.407;entryDx=0;entryDy=0;entryPerimeter=0;" parent="1" target="y7GTG4EJ7htwyHdlm22E-23" edge="1">
          <mxGeometry relative="1" as="geometry">
            <mxPoint x="660" y="330" as="sourcePoint" />
            <mxPoint x="650" y="430" as="targetPoint" />
            <Array as="points">
              <mxPoint x="660" y="429" />
            </Array>
          </mxGeometry>
        </mxCell>
        <mxCell id="y7GTG4EJ7htwyHdlm22E-27" value="Документирование всех произведённых действия" style="ellipse;whiteSpace=wrap;html=1;fillColor=#ffe6cc;strokeColor=#d79b00;" parent="1" vertex="1">
          <mxGeometry x="490" y="510" width="140" height="70" as="geometry" />
        </mxCell>
        <mxCell id="y7GTG4EJ7htwyHdlm22E-28" value="" style="endArrow=none;html=1;edgeStyle=orthogonalEdgeStyle;rounded=0;entryX=0.993;entryY=0.414;entryDx=0;entryDy=0;entryPerimeter=0;" parent="1" source="rB9vsVfAewknWLXbqwtC-7" target="y7GTG4EJ7htwyHdlm22E-27" edge="1">
          <mxGeometry relative="1" as="geometry">
            <mxPoint x="660" y="470" as="sourcePoint" />
            <mxPoint x="704" y="566" as="targetPoint" />
            <Array as="points">
              <mxPoint x="660" y="115" />
              <mxPoint x="660" y="539" />
            </Array>
          </mxGeometry>
        </mxCell>
      </root>
    </mxGraphModel>
  </diagram>
</mxfile>
